<?xml version="1.0" encoding="utf-8"?>
<!-- Generator: Adobe Illustrator 16.0.0, SVG Export Plug-In . SVG Version: 6.00 Build 0)  -->
<!DOCTYPE svg PUBLIC "-//W3C//DTD SVG 1.1//EN" "http://www.w3.org/Graphics/SVG/1.1/DTD/svg11.dtd">
<svg version="1.1" id="Слой_1" xmlns="http://www.w3.org/2000/svg" xmlns:xlink="http://www.w3.org/1999/xlink" x="0px" y="0px"
	 width="100px" height="300px" viewBox="0 0 100 300" enable-background="new 0 0 100 300" xml:space="preserve">
<path fill="#222222" d="M15,26v1h-1v1h-1v1h-0.999v1h-1v-3H0v-1h11.001v-3h1v1H13v1h1v1H15z"/>
<path fill="#222222" d="M0,67v-1h1v-0.999h1V64h0.999v-1h1v3H15v1H3.999v3h-1v-1H2v-1H1v-1H0z"/>
<path fill="#8ACACE" d="M0,87v-1h1v-0.999h1V84h0.999v-1h1v3H15v1H3.999v3h-1v-1H2v-1H1v-1H0z"/>
<path fill="#8ACACE" d="M15,46v1h-1v1h-1v1h-0.999v1h-1v-3H0v-1h11.001v-3h1v1H13v1h1v1H15z"/>
<path fill="#222222" d="M56.961,1.163c-0.095-0.414-0.386-0.77-0.754-0.975C55.977,0.076,55.727,0,55.455,0h-13.91
	c-0.271,0-0.522,0.076-0.753,0.188c-0.387,0.206-0.656,0.562-0.753,0.975C40.019,1.275,40,1.388,40,1.5v8.999
	C40,11.323,40.695,12,41.545,12h13.91C56.307,12,57,11.323,57,10.499V1.5C57,1.388,56.98,1.275,56.961,1.163z M54.18,1.5L48.5,5.682
	L42.82,1.5H54.18z M55.455,10.499h-13.91V2.456l6.491,4.78c0.135,0.097,0.309,0.151,0.463,0.151c0.155,0,0.328-0.055,0.463-0.151
	l6.492-4.78L55.455,10.499L55.455,10.499z"/>
<path fill="#8ACACE" d="M76.961,1.163c-0.095-0.414-0.386-0.77-0.754-0.975C75.977,0.076,75.727,0,75.455,0h-13.91
	c-0.271,0-0.521,0.076-0.753,0.188c-0.388,0.206-0.655,0.562-0.753,0.975C60.02,1.275,60,1.388,60,1.5v8.999
	C60,11.323,60.695,12,61.545,12h13.91C76.307,12,77,11.323,77,10.499V1.5C77,1.388,76.98,1.275,76.961,1.163z M74.18,1.5L68.5,5.682
	L62.82,1.5H74.18z M75.455,10.499h-13.91V2.456l6.492,4.78c0.135,0.097,0.309,0.151,0.463,0.151s0.328-0.055,0.463-0.151l6.492-4.78
	V10.499L75.455,10.499z"/>
<path d="M11.524,10.476C12.38,9.43,12.954,8,12.954,6.477C12.954,2.953,10.095,0,6.477,0C2.857,0,0,2.857,0,6.477
	c0,3.524,2.857,6.477,6.477,6.477c1.523,0,2.953-0.574,3.999-1.43L12.954,14L14,12.954L11.524,10.476z M1.524,6.477
	c0-2.763,2.19-4.953,4.953-4.953c2.762,0,4.954,2.19,4.954,4.953c0,2.762-2.191,4.954-4.954,4.954S1.524,9.239,1.524,6.477z"/>
<path fill="#7F7F7F" d="M51.523,110.476c0.856-1.046,1.431-2.476,1.431-3.999c0-3.524-2.859-6.477-6.477-6.477
	c-3.62,0-6.477,2.857-6.477,6.477c0,3.524,2.857,6.477,6.477,6.477c1.523,0,2.953-0.574,3.999-1.43L52.954,114L54,112.954
	L51.523,110.476z M41.524,106.477c0-2.763,2.19-4.953,4.953-4.953c2.762,0,4.955,2.19,4.955,4.953c0,2.762-2.191,4.954-4.955,4.954
	S41.524,109.239,41.524,106.477z"/>
<path fill="#8ACACE" d="M31.524,10.476C32.38,9.43,32.954,8,32.954,6.477C32.954,2.953,30.095,0,26.477,0
	C22.857,0,20,2.857,20,6.477c0,3.524,2.857,6.477,6.477,6.477c1.523,0,2.953-0.574,3.999-1.43L32.954,14L34,12.954L31.524,10.476z
	 M21.524,6.477c0-2.763,2.19-4.953,4.953-4.953c2.762,0,4.954,2.19,4.954,4.953c0,2.762-2.191,4.954-4.954,4.954
	S21.524,9.239,21.524,6.477z"/>
<path fill="#4A4A4A" d="M34,39.5l6.487-6.5L42,34.518L37.027,39.5L42,44.482L40.487,46L34,39.5L34,39.5L34,39.5z"/>
<path fill="#4A4A4A" d="M84,39.5L77.514,46L76,44.482l4.973-4.982L76,34.518L77.514,33L84,39.5L84,39.5L84,39.5z"/>
<path fill="#8ACACE" d="M87.488,11.062c-1.687,0-3.043-1.42-3.043-3.181c0-1.763,1.356-3.182,3.043-3.182
	c1.685,0,3.041,1.419,3.041,3.182C90.529,9.641,89.173,11.062,87.488,11.062z M87.488,5.677c-1.17,0-2.107,0.979-2.107,2.203
	c0,1.223,0.938,2.202,2.107,2.202c1.169,0,2.107-0.979,2.107-2.202C89.598,6.657,88.658,5.677,87.488,5.677z M87.488,0
	C83.346,0,80,3.549,80,7.88c0,0.783,0.117,1.565,0.327,2.276c0.866,4.306,6.084,10.792,6.81,11.672
	C87.23,21.952,87.348,22,87.488,22c0.021,0,0.021,0,0.047,0c0.117-0.024,0.234-0.072,0.326-0.197l0.022-0.048
	c1.591-2.008,5.99-7.755,6.787-11.647C94.881,9.398,95,8.614,95,7.831C94.979,3.549,91.605,0,87.488,0z M87.488,20.775
	c-1.475-1.858-3.182-4.281-4.469-6.558c-0.914-1.64-1.615-3.182-1.826-4.405c-0.164-0.611-0.258-1.247-0.258-1.933
	c0-0.294,0.023-0.587,0.047-0.857c0.397-3.401,3.158-6.043,6.506-6.043c3.347,0,6.105,2.643,6.507,6.069
	c0.022,0.269,0.046,0.563,0.046,0.856c0,0.636-0.072,1.249-0.234,1.835c-0.188,1.174-0.865,2.741-1.824,4.455
	C90.811,16.276,89.195,18.601,87.488,20.775z"/>
<path fill="#141414" d="M17.25,116.554l15.645,15.695L32.146,133L16.5,117.306L0.75,133L0,132.249l15.75-15.695L0.106,100.752
	L0.855,100L16.5,115.802l15.75-15.695l0.75,0.752L17.25,116.554z"/>
</svg>
